HIERARCHY
ROOT Hips
{
  OFFSET 0 0 0
  CHANNELS 6 Xposition Yposition Zposition Zrotation Yrotation Xrotation
  JOINT LeftThigh
  {
    OFFSET 8.409438 0 -5.917753
    CHANNELS 3 Zrotation Yrotation Xrotation
    JOINT LeftLeg
    {
      OFFSET 0 0 -42.358652
      CHANNELS 3 Zrotation Yrotation Xrotation
      JOINT LeftFoot
      {
        OFFSET 0 0 -39.357303
        CHANNELS 3 Zrotation Yrotation Xrotation
      }
    }
  }
  JOINT RightThigh
  {
    OFFSET -8.409438 0 -5.917753
    CHANNELS 3 Zrotation Yrotation Xrotation
    JOINT RightLeg
    {
      OFFSET 0 0 -42.358652
      CHANNELS 3 Zrotation Yrotation Xrotation
      JOINT RightFoot
      {
        OFFSET 0 0 -39.357303
        CHANNELS 3 Zrotation Yrotation Xrotation
      }
    }
  }
  JOINT SpineLow
  {
    OFFSET 0 0 4.719101
    CHANNELS 3 Zrotation Yrotation Xrotation
    JOINT SpineMid
    {
      OFFSET 0 0 12.899191
      CHANNELS 3 Zrotation Yrotation Xrotation
      JOINT Chest
      {
        OFFSET 0 0 12.899191
        CHANNELS 3 Zrotation Yrotation Xrotation
        JOINT LeftShoulder
        {
          OFFSET 7.550562 1.41573 9.438202
          CHANNELS 3 Zrotation Yrotation Xrotation
          JOINT LeftArm
          {
            OFFSET 9.155056 0 4.247191
            CHANNELS 3 Zrotation Yrotation Xrotation
            JOINT LeftForearm
            {
              OFFSET 0 0 25.771955
              CHANNELS 3 Zrotation Yrotation Xrotation
              JOINT LeftHand
              {
                OFFSET 0 0 25.197169
                CHANNELS 3 Zrotation Yrotation Xrotation
              }
            }
          }
        }
        JOINT RightShoulder
        {
          OFFSET -7.550562 1.41573 9.438202
          CHANNELS 3 Zrotation Yrotation Xrotation
          JOINT RightArm
          {
            OFFSET -9.155056 0 4.247191
            CHANNELS 3 Zrotation Yrotation Xrotation
            JOINT RightForearm
            {
              OFFSET 0 0 -25.771955
              CHANNELS 3 Zrotation Yrotation Xrotation
              JOINT RightHand
              {
                OFFSET 0 0 -25.197169
                CHANNELS 3 Zrotation Yrotation Xrotation
              }
            }
          }
        }
        JOINT Neck
        {
          OFFSET 0 0 15.101124
          CHANNELS 3 Zrotation Yrotation Xrotation
          JOINT Head
          {
            OFFSET 0 0 11.325843
            CHANNELS 3 Zrotation Yrotation Xrotation
            End Site
            {
              OFFSET 0 0 14.157303
            }
          }
        }
      }
    }
  }
}
MOTION
Frames: 11
Frame Time: 0.0
0.0  93.25843  0.0  -4.290384  12.896875  -88.738336  3.557318  -19.733339  -13.331657  -8.680238  6.010407  21.359684  6.63353  1.461089  2.928971  -17.463255  3.018593  -5.554032  -3.586759  6.33324  8.999863  -2.765808  1.412128  -0.344811  0.343411  -0.865089  0.181472  0.932546  -2.367143  0.483927  0.932546  -2.367143  0.483927  -33.203874  26.081045  -7.76715  135.747462  38.593235  -143.665111  -14.332338  18.02295  100.216882  78.012623  -16.266184  5.568768  -5.850325  -12.049798  23.949686  80.067344  56.497559  17.885663  -0.659862  -28.922714  -129.029477  61.935951  20.723091  -13.702851  -14.270359  5.228008  6.049465  -10.748407  3.782709  4.659351  
0.0  93.25843  0.0  -4.091847  16.634844  -88.583658  2.060597  -19.624103  -13.762742  -9.284767  6.028966  20.692026  6.804495  1.463044  3.378037  -18.929789  3.494038  -5.177142  -5.090723  6.184049  8.758389  -2.743717  1.482746  -0.273546  0.470137  -0.891428  0.188781  1.278637  -2.440177  0.498864  1.278637  -2.440177  0.498864  -33.353423  25.584823  -8.452418  135.707285  38.238768  -144.684148  -12.996605  17.046819  101.509888  79.356628  -15.914059  4.805325  -5.840221  -12.334031  22.328601  73.610062  59.744719  13.215048  -1.346081  -28.51651  -129.529604  63.096355  20.454948  -12.123163  -16.436462  5.208157  5.78162  -12.369484  3.754306  4.477516  
0.0  93.25843  0.0  -3.86965  20.122706  -88.405716  0.585482  -19.362585  -14.066206  -9.639589  5.749633  20.032126  6.274565  1.222911  3.313965  -20.319369  3.964109  -4.832819  -6.638615  6.025423  8.474532  -2.850055  1.504605  -0.230114  0.500493  -1.020535  0.103345  1.364429  -2.791527  0.261483  1.364429  -2.791526  0.261483  -32.510816  26.01637  -9.049383  135.204085  37.731564  -146.237543  -11.579347  15.678494  103.497593  80.055637  -14.977717  3.623022  -4.75277  -11.73321  21.159687  65.866561  63.001504  7.705999  -2.814531  -27.974369  -129.724157  64.682975  20.221491  -10.066892  -17.989163  5.773652  5.80865  -13.536831  4.164073  4.527966  
0.0  93.25843  0.0  -3.675483  23.232021  -88.217909  -0.820502  -18.870003  -14.318574  -9.868541  5.120526  19.464307  5.051409  1.112856  2.887404  -21.423824  4.34142  -4.445021  -7.771914  5.834193  8.180009  -3.057251  1.480377  -0.199882  0.48007  -1.151154  -0.121109  1.318903  -3.144006  -0.354135  1.318903  -3.144006  -0.354135  -30.565017  26.896331  -8.821499  134.648677  36.712479  -147.984543  -11.003315  13.996983  104.95281  80.736162  -14.177979  2.870505  -3.15081  -10.918686  20.901942  57.179326  66.169445  1.149144  -5.940432  -27.102228  -128.930152  66.387367  19.957902  -7.851839  -19.081934  6.604447  6.365901  -14.366343  4.760838  4.98199  
0.0  93.25843  0.0  -3.545973  25.776753  -87.977759  -1.688162  -18.467825  -14.433683  -10.345113  4.520101  18.673776  4.546163  0.854593  2.782718  -22.133005  4.552711  -4.088257  -8.819204  5.669691  7.803009  -3.236031  1.506649  -0.171275  0.431877  -1.30655  -0.429474  1.204746  -3.563385  -1.198302  1.204746  -3.563385  -1.198302  -27.686294  28.024436  -8.075682  134.847255  35.335302  -149.587347  -10.638006  12.201181  106.085092  79.452713  -13.576672  -0.573073  -1.126983  -9.801415  21.287711  47.528429  69.100818  -6.732558  -10.447091  -25.788471  -127.197158  68.840747  19.563  -5.004413  -19.624718  7.708674  7.213847  -14.789992  5.557848  5.658069  
0.0  93.25843  0.0  -3.45779  27.434113  -87.763669  -1.990519  -18.095008  -14.403226  -10.865466  3.95071  17.777279  4.271593  0.599473  2.706988  -22.117368  4.657113  -3.724083  -9.542778  5.616328  7.459769  -3.248377  1.491678  -0.143972  0.700243  -1.396741  -0.708884  1.956816  -3.796558  -1.979961  1.956816  -3.796557  -1.979961  -25.754592  28.565017  -6.867123  136.199983  34.153798  -150.669666  -10.902681  11.189978  106.603331  78.416588  -11.857365  -2.564385  -0.646847  -9.121956  21.51775  36.950139  72.080274  -16.355912  -16.098409  -23.889818  -124.385647  72.072817  18.756371  -1.30981  -20.746759  8.559167  8.073358  -15.647795  6.155403  6.344974  
0.0  93.25843  0.0  -3.333837  28.388124  -87.617613  -1.81762  -17.670113  -14.189947  -11.37225  3.360429  16.822107  4.236021  0.367212  2.735853  -21.588077  4.714673  -3.348997  -10.317702  5.549365  7.115266  -3.448382  1.545981  -0.183132  1.189041  -1.394098  -0.798171  3.299068  -3.769807  -2.25196  3.299068  -3.769807  -2.251959  -24.701601  28.168449  -5.996254  138.388217  33.211569  -151.320593  -11.124848  12.336841  107.100194  77.645214  -9.433531  -4.387672  -1.15181  -8.923315  20.376734  24.670068  74.221615  -27.728551  -22.174823  -20.618649  -121.347799  75.505223  17.472185  2.822051  -22.288833  8.830306  8.4462  -16.809755  6.326569  6.657019  
0.0  93.25843  0.0  -3.179204  28.915832  -87.368083  -1.351088  -17.132576  -13.990797  -12.042486  2.684091  15.670669  4.242215  0.221127  2.801582  -21.040055  4.650405  -3.213866  -11.012144  5.568329  6.831462  -3.355627  1.663503  -0.204885  1.343155  -1.458086  -0.73883  3.719644  -3.942608  -2.102145  3.719644  -3.942608  -2.102144  -21.443963  28.015776  -5.804674  141.23059  32.4408  -151.999636  -11.330895  14.462475  107.232601  76.933912  -7.462108  -5.697349  0.610661  -7.934402  18.521443  9.658611  75.278098  -42.421895  -28.251733  -15.911413  -118.067794  79.027578  15.653244  7.229709  -22.418582  9.127585  8.148192  -16.904026  6.559138  6.445955  
0.0  93.25843  0.0  -2.88399  28.920271  -87.025222  -0.62666  -16.465615  -13.630988  -12.18201  1.855735  14.684685  4.17988  0.226394  2.83307  -20.638524  4.682831  -3.354423  -11.511081  5.624533  6.654523  -3.293857  1.70441  -0.25511  1.657859  -1.554861  -0.713584  4.582757  -4.198354  -2.058684  4.582757  -4.198354  -2.058684  -18.71859  28.531787  -5.230281  144.212002  31.953814  -152.946511  -11.487919  16.582348  107.495358  76.368109  -5.751328  -6.79462  1.220267  -6.316316  16.929664  -6.376676  75.662776  -58.52998  -34.12767  -10.284721  -114.926557  82.344324  13.272646  11.585746  -22.87533  9.631313  7.799074  -17.242757  6.945003  6.209498  
0.0  93.25843  0.0  -2.514324  28.47194  -86.587788  -0.016976  -15.831333  -13.058792  -11.9921  1.044833  13.594283  3.884433  0.360589  2.69513  -20.560761  4.79966  -3.778837  -11.767103  5.670394  6.569169  -2.875825  1.801439  -0.266342  1.949204  -1.400233  -0.528943  5.36372  -3.781658  -1.559209  5.36372  -3.781658  -1.559209  -15.879893  27.519724  -5.17229  146.897871  31.385149  -154.696884  -11.45481  17.990554  108.041806  75.933452  -4.413992  -7.168988  2.084248  -6.004979  14.088057  -22.227138  75.871211  -74.661981  -39.884454  -4.125733  -111.853236  85.119481  10.600439  15.694282  -23.173098  9.071467  7.213547  -17.453744  6.542754  5.755355  
0.0  93.25843  0.0  -2.165921  27.489157  -86.115567  0.293187  -15.296122  -12.298365  -11.461684  0.286553  12.47627  3.983702  0.52726  2.708003  -20.703626  5.015316  -4.428492  -11.777631  5.606558  6.568916  -2.592825  1.78456  -0.292405  2.194896  -1.19893  -0.535408  6.030171  -3.225256  -1.572069  6.030171  -3.225256  -1.572069  -12.139259  26.578057  -3.794874  149.686927  30.902576  -156.941532  -11.158598  18.708555  108.613015  75.236845  -3.093056  -6.697084  3.065936  -5.905161  12.25426  -38.700672  76.172013  -91.491926  -45.48967  2.325952  -108.72816  87.211061  8.068347  19.910082  -22.856342  8.667517  7.388259  -17.217577  6.236137  5.86686  
